<?xml version="1.0" encoding="UTF-8" standalone="no"?>
<!-- Created with Inkscape (http://www.inkscape.org/) -->

<svg
   version="1.1"
   id="svg43675"
   width="800"
   height="800"
   viewBox="0 0 800 800"
   sodipodi:docname="gumball-vending-machine-pdv.svg"
   inkscape:version="1.2 (dc2aedaf03, 2022-05-15)"
   xmlns:inkscape="http://www.inkscape.org/namespaces/inkscape"
   xmlns:sodipodi="http://sodipodi.sourceforge.net/DTD/sodipodi-0.dtd"
   xmlns="http://www.w3.org/2000/svg"
   xmlns:svg="http://www.w3.org/2000/svg">
  <defs
     id="defs43679">
    <clipPath
       clipPathUnits="userSpaceOnUse"
       id="clipPath43693">
      <path
         d="M 0,600 H 600 V 0 H 0 Z"
         id="path43691" />
    </clipPath>
  </defs>
  <sodipodi:namedview
     id="namedview43677"
     pagecolor="#ffffff"
     bordercolor="#000000"
     borderopacity="0.25"
     inkscape:showpageshadow="2"
     inkscape:pageopacity="0.0"
     inkscape:pagecheckerboard="0"
     inkscape:deskcolor="#d1d1d1"
     showgrid="false"
     inkscape:zoom="1.04625"
     inkscape:cx="400"
     inkscape:cy="400.4779"
     inkscape:window-width="1920"
     inkscape:window-height="1017"
     inkscape:window-x="-8"
     inkscape:window-y="-8"
     inkscape:window-maximized="1"
     inkscape:current-layer="g43683">
    <inkscape:page
       x="0"
       y="0"
       id="page43681"
       width="800"
       height="800" />
  </sodipodi:namedview>
  <g
     id="g43683"
     inkscape:groupmode="layer"
     inkscape:label="Page 1"
     transform="matrix(1.3333333,0,0,-1.3333333,0,800)">
    <path
       d="m 266.479,163.955 h 72.409 v 99.614 h -72.409 z"
       style="fill:#d3eaf0;fill-opacity:1;fill-rule:evenodd;stroke:none"
       id="path43685" />
    <g
       id="g43687">
      <g
         id="g43689"
         clip-path="url(#clipPath43693)">
        <g
           id="g43695"
           transform="translate(279.4912,194.6016)">
          <path
             d="m 0,0 c -1.79,-1.07 -4.109,-0.489 -5.182,1.301 -1.07,1.788 -0.489,4.107 1.299,5.179 l 53.298,31.944 c 1.787,1.072 4.108,0.491 5.179,-1.299 1.072,-1.788 0.489,-4.107 -1.298,-5.18 z"
             style="fill:#b3d3db;fill-opacity:1;fill-rule:evenodd;stroke:none"
             id="path43697" />
        </g>
        <path
           d="m 297.684,163.955 h 10.801 v 99.614 h -10.801 z"
           style="fill:#96a0a3;fill-opacity:1;fill-rule:evenodd;stroke:none"
           id="path43699" />
        <g
           id="g43701"
           transform="translate(276.4131,260.4082)">
          <path
             d="M 0,0 C -1.746,1.142 -2.233,3.481 -1.093,5.228 0.049,6.973 2.389,7.46 4.135,6.319 l 52.007,-34.004 c 1.744,-1.141 2.233,-3.481 1.092,-5.227 -1.141,-1.745 -3.482,-2.234 -5.227,-1.092 z"
             style="fill:#b3d3db;fill-opacity:1;fill-rule:evenodd;stroke:none"
             id="path43703" />
        </g>
        <g
           id="g43705"
           transform="translate(275.5059,194.3242)">
          <path
             d="M 0,0 C -1.716,1.186 -2.147,3.538 -0.961,5.253 0.224,6.969 2.575,7.4 4.292,6.214 l 51.136,-35.298 c 1.717,-1.185 2.148,-3.536 0.962,-5.253 -1.185,-1.716 -3.537,-2.145 -5.253,-0.961 z"
             style="fill:#b3d3db;fill-opacity:1;fill-rule:evenodd;stroke:none"
             id="path43707" />
        </g>
        <path
           d="m 261.677,116.948 h 82.011 v 47.607 h -82.011 z"
           style="fill:#ad2b00;fill-opacity:1;fill-rule:evenodd;stroke:none"
           id="path43709" />
        <path
           d="m 247.624,94.747 h 110.118 v 25.404 H 247.624 Z"
           style="fill:#8f2400;fill-opacity:1;fill-rule:evenodd;stroke:none"
           id="path43711" />
        <path
           d="m 232.022,75.546 h 141.322 v 25.403 H 232.022 Z"
           style="fill:#6e1c00;fill-opacity:1;fill-rule:evenodd;stroke:none"
           id="path43713" />
        <path
           d="m 262.426,263.568 h 82.01 v 93.21 h -82.01 z"
           style="fill:#ad2b00;fill-opacity:1;fill-rule:evenodd;stroke:none"
           id="path43715" />
        <g
           id="g43717"
           transform="translate(323.085,336.1284)">
          <path
             d="M 0,0 V -62.951 H -39.31 V 0 c 6.28,-1.878 12.866,-2.88 19.656,-2.88 6.792,0 13.378,1.002 19.654,2.88"
             style="fill:#8f2400;fill-opacity:1;fill-rule:evenodd;stroke:none"
             id="path43719" />
        </g>
        <g
           id="g43721"
           transform="translate(293.7295,320.9751)">
          <path
             d="m 0,0 h 19.404 c 3.63,0 6.599,-2.971 6.599,-6.601 v -26.604 c 0,-3.631 -2.969,-6.601 -6.599,-6.601 H 0 c -3.631,0 -6.6,2.97 -6.6,6.601 V -6.601 C -6.6,-2.971 -3.631,0 0,0"
             style="fill:#b3b3b3;fill-opacity:1;fill-rule:evenodd;stroke:none"
             id="path43723" />
        </g>
        <g
           id="g43725"
           transform="translate(295.7813,320.9751)">
          <path
             d="M 0,0 H 15.3 C 15.3,-4.226 11.876,-7.651 7.649,-7.651 3.426,-7.651 0,-4.225 0,0"
             style="fill:#cccccc;fill-opacity:1;fill-rule:evenodd;stroke:none"
             id="path43727" />
        </g>
        <g
           id="g43729"
           transform="translate(295.4912,310.186)">
          <path
             d="m 0,0 h 15.878 c 2.737,0 4.977,-2.238 4.977,-4.975 v -15.878 c 0,-2.737 -2.24,-4.977 -4.977,-4.977 L 0,-25.83 c -2.735,0 -4.975,2.24 -4.975,4.977 V -4.975 C -4.975,-2.238 -2.735,0 0,0"
             style="fill:#cccccc;fill-opacity:1;fill-rule:evenodd;stroke:none"
             id="path43731" />
        </g>
        <g
           id="g43733"
           transform="translate(291.1094,301.373)">
          <path
             d="m 0,0 h 24.643 c 0.87,0 1.581,-0.711 1.581,-1.58 v -5.042 c 0,-0.869 -0.711,-1.58 -1.581,-1.58 H 0 c -0.869,0 -1.58,0.711 -1.58,1.58 V -1.58 C -1.58,-0.711 -0.869,0 0,0"
             style="fill:#e6e6e6;fill-opacity:1;fill-rule:evenodd;stroke:none"
             id="path43735" />
        </g>
        <g
           id="g43737"
           transform="translate(303.4307,353.0464)">
          <path
             d="m 0,0 c 58.041,0 105.378,47.337 105.378,105.378 0,58.041 -47.337,105.379 -105.378,105.379 -58.04,0 -105.377,-47.338 -105.377,-105.379 C -105.377,47.337 -58.04,0 0,0"
             style="fill:#d3eaf0;fill-opacity:1;fill-rule:evenodd;stroke:none"
             id="path43739" />
        </g>
        <g
           id="g43741"
           transform="translate(241.3809,543.543)">
          <path
             d="m 0,0 h 124.1 v 15.699 c 0,8.634 -7.062,15.697 -15.698,15.697 H 15.697 C 7.063,31.396 0,24.333 0,15.699 Z"
             style="fill:#cc3300;fill-opacity:1;fill-rule:evenodd;stroke:none"
             id="path43743" />
        </g>
        <g
           id="g43745"
           transform="translate(285.7744,157.9512)">
          <path
             d="m 0,0 h 33.818 c 6.048,0 10.993,-4.948 10.993,-10.995 V -23.41 c 0,-6.047 -4.945,-10.993 -10.993,-10.993 H 0 c -6.047,0 -10.995,4.946 -10.995,10.993 v 12.415 C -10.995,-4.948 -6.047,0 0,0"
             style="fill:#992600;fill-opacity:1;fill-rule:evenodd;stroke:none"
             id="path43747" />
        </g>
        <g
           id="g43749"
           transform="translate(278.9814,156.751)">
          <path
             d="m 0,0 h 47.405 c 1.65,0 3,-1.35 3,-3 v -26.003 c 0,-1.65 -1.35,-3 -3,-3 H 0 c -1.652,0 -3.002,1.35 -3.002,3 V -3 c 0,1.65 1.35,3 3.002,3"
             style="fill:#b3b3b3;fill-opacity:1;fill-rule:evenodd;stroke:none"
             id="path43751" />
        </g>
        <g
           id="g43753"
           transform="translate(302.583,155.3496)">
          <path
             d="m 0,0 h 0.201 c 8.031,0 14.6,-6.57 14.6,-14.601 0,-8.031 -6.569,-14.6 -14.6,-14.6 H 0 c -8.029,0 -14.601,6.569 -14.601,14.6 C -14.601,-6.57 -8.029,0 0,0"
             style="fill:#b0b0b0;fill-opacity:1;fill-rule:evenodd;stroke:none"
             id="path43755" />
        </g>
        <g
           id="g43757"
           transform="translate(294.082,153.9512)">
          <path
             d="m 0,0 h 17.202 c 2.586,0 4.701,-2.115 4.701,-4.701 v -17.003 c 0,-2.586 -2.115,-4.699 -4.701,-4.699 H 0 c -2.586,0 -4.699,2.114 -4.699,4.699 V -4.701 C -4.699,-2.115 -2.586,0 0,0"
             style="fill:#d6d6d6;fill-opacity:1;fill-rule:evenodd;stroke:none"
             id="path43759" />
        </g>
        <path
           d="m 266.479,164.556 h 2.926 v 99.013 h -2.926 z"
           style="fill:#cae4eb;fill-opacity:1;fill-rule:evenodd;stroke:none"
           id="path43761" />
        <path
           d="m 335.96,164.556 h 2.929 v 99.013 h -2.929 z"
           style="fill:#cae4eb;fill-opacity:1;fill-rule:evenodd;stroke:none"
           id="path43763" />
        <g
           id="g43765"
           transform="translate(232.5723,401.7148)">
          <path
             d="m 0,0 c 4.958,0 9.001,4.044 9.001,9.001 0,4.958 -4.043,9.002 -9.001,9.002 -4.958,0 -9.001,-4.044 -9.001,-9.002 C -9.001,4.044 -4.958,0 0,0"
             style="fill:#ffcc00;fill-opacity:1;fill-rule:evenodd;stroke:none"
             id="path43767" />
        </g>
        <g
           id="g43769"
           transform="translate(230.2529,408.7095)">
          <path
             d="m 0,0 c 2.579,0 4.682,2.103 4.682,4.682 0,2.577 -2.103,4.68 -4.682,4.68 -2.579,0 -4.682,-2.103 -4.682,-4.68 C -4.682,2.103 -2.579,0 0,0"
             style="fill:#ffdb4a;fill-opacity:1;fill-rule:evenodd;stroke:none"
             id="path43771" />
        </g>
        <g
           id="g43773"
           transform="translate(214.2896,416.4355)">
          <path
             d="m 0,0 c 4.958,0 9.001,4.045 9.001,9.003 0,4.956 -4.043,9.001 -9.001,9.001 -4.958,0 -9.001,-4.045 -9.001,-9.001 C -9.001,4.045 -4.958,0 0,0"
             style="fill:#ff6666;fill-opacity:1;fill-rule:evenodd;stroke:none"
             id="path43775" />
        </g>
        <g
           id="g43777"
           transform="translate(211.9697,423.4321)">
          <path
             d="M 0,0 C 2.577,0 4.681,2.102 4.681,4.68 4.681,7.259 2.577,9.362 0,9.362 -2.579,9.362 -4.68,7.259 -4.68,4.68 -4.68,2.102 -2.579,0 0,0"
             style="fill:#ff7a7a;fill-opacity:1;fill-rule:evenodd;stroke:none"
             id="path43779" />
        </g>
        <g
           id="g43781"
           transform="translate(220.5703,402.9165)">
          <path
             d="m 0,0 c 4.958,0 9.003,4.043 9.003,8.999 0,4.958 -4.045,9.002 -9.003,9.002 -4.956,0 -8.999,-4.044 -8.999,-9.002 C -8.999,4.043 -4.956,0 0,0"
             style="fill:#7cb54b;fill-opacity:1;fill-rule:evenodd;stroke:none"
             id="path43783" />
        </g>
        <g
           id="g43785"
           transform="translate(218.2524,409.9111)">
          <path
             d="M 0,0 C 2.577,0 4.68,2.103 4.68,4.68 4.68,7.259 2.577,9.362 0,9.362 -2.581,9.362 -4.682,7.259 -4.682,4.68 -4.682,2.103 -2.581,0 0,0"
             style="fill:#9dd46c;fill-opacity:1;fill-rule:evenodd;stroke:none"
             id="path43787" />
        </g>
        <g
           id="g43789"
           transform="translate(247.0938,399.2349)">
          <path
             d="m 0,0 c 4.958,0 9.002,4.043 9.002,9.001 0,4.958 -4.044,9.001 -9.002,9.001 -4.956,0 -9.001,-4.043 -9.001,-9.001 C -9.001,4.043 -4.956,0 0,0"
             style="fill:#336699;fill-opacity:1;fill-rule:evenodd;stroke:none"
             id="path43791" />
        </g>
        <g
           id="g43793"
           transform="translate(244.7744,406.2295)">
          <path
             d="M 0,0 C 2.579,0 4.682,2.104 4.682,4.681 4.682,7.259 2.579,9.362 0,9.362 -2.579,9.362 -4.682,7.259 -4.682,4.681 -4.682,2.104 -2.579,0 0,0"
             style="fill:#4376a8;fill-opacity:1;fill-rule:evenodd;stroke:none"
             id="path43795" />
        </g>
        <g
           id="g43797"
           transform="translate(229.0923,416.4355)">
          <path
             d="m 0,0 c 4.956,0 9,4.045 9,9.003 0,4.956 -4.044,9.001 -9,9.001 -4.958,0 -9.003,-4.045 -9.003,-9.001 C -9.003,4.045 -4.958,0 0,0"
             style="fill:#336699;fill-opacity:1;fill-rule:evenodd;stroke:none"
             id="path43799" />
        </g>
        <g
           id="g43801"
           transform="translate(226.771,423.4321)">
          <path
             d="M 0,0 C 2.58,0 4.682,2.102 4.682,4.68 4.682,7.259 2.58,9.362 0,9.362 -2.577,9.362 -4.68,7.259 -4.68,4.68 -4.68,2.102 -2.577,0 0,0"
             style="fill:#4376a8;fill-opacity:1;fill-rule:evenodd;stroke:none"
             id="path43803" />
        </g>
        <g
           id="g43805"
           transform="translate(221.3711,429.7197)">
          <path
             d="m 0,0 c 4.958,0 9.001,4.043 9.001,8.999 0,4.959 -4.043,9.002 -9.001,9.002 -4.956,0 -9.001,-4.043 -9.001,-9.002 C -9.001,4.043 -4.956,0 0,0"
             style="fill:#ffcc00;fill-opacity:1;fill-rule:evenodd;stroke:none"
             id="path43807" />
        </g>
        <g
           id="g43809"
           transform="translate(219.0518,436.7144)">
          <path
             d="M 0,0 C 2.579,0 4.682,2.103 4.682,4.68 4.682,7.259 2.579,9.36 0,9.36 -2.579,9.36 -4.682,7.259 -4.682,4.68 -4.682,2.103 -2.579,0 0,0"
             style="fill:#ffdb4a;fill-opacity:1;fill-rule:evenodd;stroke:none"
             id="path43811" />
        </g>
        <g
           id="g43813"
           transform="translate(210.1226,431.8911)">
          <path
             d="m 0,0 c 4.956,0 9,4.042 9,8.999 0,4.959 -4.044,9.002 -9,9.002 -4.958,0 -9.002,-4.043 -9.002,-9.002 C -9.002,4.042 -4.958,0 0,0"
             style="fill:#336699;fill-opacity:1;fill-rule:evenodd;stroke:none"
             id="path43815" />
        </g>
        <g
           id="g43817"
           transform="translate(207.8013,438.8857)">
          <path
             d="M 0,0 C 2.579,0 4.682,2.103 4.682,4.68 4.682,7.259 2.579,9.36 0,9.36 -2.577,9.36 -4.681,7.259 -4.681,4.68 -4.681,2.103 -2.577,0 0,0"
             style="fill:#4376a8;fill-opacity:1;fill-rule:evenodd;stroke:none"
             id="path43819" />
        </g>
        <g
           id="g43821"
           transform="translate(234.9414,431.0146)">
          <path
             d="M 0,0 C 4.956,0 9.001,4.043 9.001,9 9.001,13.958 4.956,18.002 0,18.002 -4.958,18.002 -9.002,13.958 -9.002,9 -9.002,4.043 -4.958,0 0,0"
             style="fill:#ff6666;fill-opacity:1;fill-rule:evenodd;stroke:none"
             id="path43823" />
        </g>
        <g
           id="g43825"
           transform="translate(232.6221,438.0098)">
          <path
             d="M 0,0 C 2.579,0 4.68,2.103 4.68,4.68 4.68,7.259 2.579,9.36 0,9.36 -2.579,9.36 -4.682,7.259 -4.682,4.68 -4.682,2.103 -2.579,0 0,0"
             style="fill:#ff7a7a;fill-opacity:1;fill-rule:evenodd;stroke:none"
             id="path43827" />
        </g>
        <g
           id="g43829"
           transform="translate(261.5435,399.811)">
          <path
             d="m 0,0 c 4.96,0 9.002,4.043 9.002,8.999 0,4.958 -4.042,9.002 -9.002,9.002 -4.956,0 -8.999,-4.044 -8.999,-9.002 C -8.999,4.043 -4.956,0 0,0"
             style="fill:#ff6666;fill-opacity:1;fill-rule:evenodd;stroke:none"
             id="path43831" />
        </g>
        <g
           id="g43833"
           transform="translate(259.2256,406.8057)">
          <path
             d="M 0,0 C 2.577,0 4.68,2.104 4.68,4.68 4.68,7.259 2.577,9.361 0,9.361 -2.579,9.361 -4.682,7.259 -4.682,4.68 -4.682,2.104 -2.579,0 0,0"
             style="fill:#ff7a7a;fill-opacity:1;fill-rule:evenodd;stroke:none"
             id="path43835" />
        </g>
        <g
           id="g43837"
           transform="translate(242.7749,414.3169)">
          <path
             d="m 0,0 c 4.957,0 8.999,4.043 8.999,9.001 0,4.958 -4.042,9.001 -8.999,9.001 -4.959,0 -9.002,-4.043 -9.002,-9.001 C -9.002,4.043 -4.959,0 0,0"
             style="fill:#7cb54b;fill-opacity:1;fill-rule:evenodd;stroke:none"
             id="path43839" />
        </g>
        <g
           id="g43841"
           transform="translate(240.4536,421.312)">
          <path
             d="m 0,0 c 2.579,0 4.682,2.103 4.682,4.682 0,2.577 -2.103,4.68 -4.682,4.68 -2.577,0 -4.68,-2.103 -4.68,-4.68 C -4.68,2.103 -2.577,0 0,0"
             style="fill:#9dd46c;fill-opacity:1;fill-rule:evenodd;stroke:none"
             id="path43843" />
        </g>
        <g
           id="g43845"
           transform="translate(243.5742,425.5181)">
          <path
             d="m 0,0 c 4.958,0 9.001,4.043 9.001,9.001 0,4.956 -4.043,9.001 -9.001,9.001 -4.958,0 -9.001,-4.045 -9.001,-9.001 C -9.001,4.043 -4.958,0 0,0"
             style="fill:#ffcc00;fill-opacity:1;fill-rule:evenodd;stroke:none"
             id="path43847" />
        </g>
        <g
           id="g43849"
           transform="translate(241.2549,432.5132)">
          <path
             d="m 0,0 c 2.577,0 4.68,2.103 4.68,4.682 0,2.577 -2.103,4.68 -4.68,4.68 -2.579,0 -4.681,-2.103 -4.681,-4.68 C -4.681,2.103 -2.579,0 0,0"
             style="fill:#ffdb4a;fill-opacity:1;fill-rule:evenodd;stroke:none"
             id="path43851" />
        </g>
        <g
           id="g43853"
           transform="translate(257.3745,411.1162)">
          <path
             d="m 0,0 c 4.96,0 9.003,4.044 9.003,9.001 0,4.958 -4.043,9.002 -9.003,9.002 -4.956,0 -8.999,-4.044 -8.999,-9.002 C -8.999,4.044 -4.956,0 0,0"
             style="fill:#7cb54b;fill-opacity:1;fill-rule:evenodd;stroke:none"
             id="path43855" />
        </g>
        <g
           id="g43857"
           transform="translate(255.0566,418.1108)">
          <path
             d="m 0,0 c 2.577,0 4.68,2.104 4.68,4.682 0,2.577 -2.103,4.68 -4.68,4.68 -2.579,0 -4.682,-2.103 -4.682,-4.68 C -4.682,2.104 -2.579,0 0,0"
             style="fill:#9dd46c;fill-opacity:1;fill-rule:evenodd;stroke:none"
             id="path43859" />
        </g>
        <g
           id="g43861"
           transform="translate(256.6963,424.4375)">
          <path
             d="m 0,0 c 4.957,0 8.999,4.044 8.999,9.001 0,4.958 -4.042,9.002 -8.999,9.002 -4.96,0 -9.003,-4.044 -9.003,-9.002 C -9.003,4.044 -4.96,0 0,0"
             style="fill:#336699;fill-opacity:1;fill-rule:evenodd;stroke:none"
             id="path43863" />
        </g>
        <g
           id="g43865"
           transform="translate(254.375,431.4326)">
          <path
             d="m 0,0 c 2.579,0 4.682,2.103 4.682,4.682 0,2.577 -2.103,4.68 -4.682,4.68 -2.577,0 -4.68,-2.103 -4.68,-4.68 C -4.68,2.103 -2.577,0 0,0"
             style="fill:#4376a8;fill-opacity:1;fill-rule:evenodd;stroke:none"
             id="path43867" />
        </g>
        <g
           id="g43869"
           transform="translate(269.6973,418.2373)">
          <path
             d="M 0,0 C 4.956,0 9.001,4.044 9.001,9 9.001,13.958 4.956,18.001 0,18.001 -4.958,18.001 -9.003,13.958 -9.003,9 -9.003,4.044 -4.958,0 0,0"
             style="fill:#ff6666;fill-opacity:1;fill-rule:evenodd;stroke:none"
             id="path43871" />
        </g>
        <g
           id="g43873"
           transform="translate(267.376,425.2319)">
          <path
             d="m 0,0 c 2.579,0 4.682,2.103 4.682,4.682 0,2.577 -2.103,4.68 -4.682,4.68 -2.577,0 -4.68,-2.103 -4.68,-4.68 C -4.68,2.103 -2.577,0 0,0"
             style="fill:#ff7a7a;fill-opacity:1;fill-rule:evenodd;stroke:none"
             id="path43875" />
        </g>
        <g
           id="g43877"
           transform="translate(265.8965,432.6392)">
          <path
             d="m 0,0 c 4.957,0 9.001,4.043 9.001,9.001 0,4.958 -4.044,9.002 -9.001,9.002 -4.958,0 -9.002,-4.044 -9.002,-9.002 C -9.002,4.043 -4.958,0 0,0"
             style="fill:#ff6666;fill-opacity:1;fill-rule:evenodd;stroke:none"
             id="path43879" />
        </g>
        <g
           id="g43881"
           transform="translate(263.5771,439.6338)">
          <path
             d="m 0,0 c 2.579,0 4.682,2.104 4.682,4.682 0,2.577 -2.103,4.68 -4.682,4.68 -2.579,0 -4.682,-2.103 -4.682,-4.68 C -4.682,2.104 -2.579,0 0,0"
             style="fill:#ff7a7a;fill-opacity:1;fill-rule:evenodd;stroke:none"
             id="path43883" />
        </g>
        <g
           id="g43885"
           transform="translate(259.7095,535.3569)">
          <path
             d="m 0,0 c 21.653,1.495 39.205,-9.475 39.205,-24.498 0,-15.023 -17.552,-28.413 -39.205,-29.907 -21.652,-1.493 -39.204,9.474 -39.204,24.5 0,15.023 17.552,28.412 39.204,29.905"
             style="fill:#e2f1f5;fill-opacity:1;fill-rule:evenodd;stroke:none"
             id="path43887" />
        </g>
        <g
           id="g43889"
           transform="translate(348.1465,401.2886)">
          <path
             d="m 0,0 c 4.956,0 9.001,4.043 9.001,9.001 0,4.958 -4.045,9.001 -9.001,9.001 -4.958,0 -9.001,-4.043 -9.001,-9.001 C -9.001,4.043 -4.958,0 0,0"
             style="fill:#ffcc00;fill-opacity:1;fill-rule:evenodd;stroke:none"
             id="path43891" />
        </g>
        <g
           id="g43893"
           transform="translate(345.8271,408.2837)">
          <path
             d="m 0,0 c 2.577,0 4.68,2.103 4.68,4.682 0,2.577 -2.103,4.68 -4.68,4.68 -2.579,0 -4.683,-2.103 -4.683,-4.68 C -4.683,2.103 -2.579,0 0,0"
             style="fill:#ffdb4a;fill-opacity:1;fill-rule:evenodd;stroke:none"
             id="path43895" />
        </g>
        <g
           id="g43897"
           transform="translate(329.8633,416.0093)">
          <path
             d="m 0,0 c 4.957,0 9.001,4.044 9.001,9.003 0,4.956 -4.044,8.999 -9.001,8.999 -4.958,0 -9,-4.043 -9,-8.999 C -9,4.044 -4.958,0 0,0"
             style="fill:#ff6666;fill-opacity:1;fill-rule:evenodd;stroke:none"
             id="path43899" />
        </g>
        <g
           id="g43901"
           transform="translate(327.5439,423.0044)">
          <path
             d="M 0,0 C 2.577,0 4.681,2.103 4.681,4.682 4.681,7.26 2.577,9.364 0,9.364 -2.579,9.364 -4.682,7.26 -4.682,4.682 -4.682,2.103 -2.579,0 0,0"
             style="fill:#ff7a7a;fill-opacity:1;fill-rule:evenodd;stroke:none"
             id="path43903" />
        </g>
        <g
           id="g43905"
           transform="translate(336.1445,402.4902)">
          <path
             d="m 0,0 c 4.958,0 9.001,4.043 9.001,8.999 0,4.96 -4.043,9.003 -9.001,9.003 -4.958,0 -9.001,-4.043 -9.001,-9.003 C -9.001,4.043 -4.958,0 0,0"
             style="fill:#7cb54b;fill-opacity:1;fill-rule:evenodd;stroke:none"
             id="path43907" />
        </g>
        <g
           id="g43909"
           transform="translate(333.8242,409.4849)">
          <path
             d="m 0,0 c 2.577,0 4.681,2.104 4.681,4.681 0,2.578 -2.104,4.68 -4.681,4.68 -2.578,0 -4.682,-2.102 -4.682,-4.68 C -4.682,2.104 -2.578,0 0,0"
             style="fill:#9dd46c;fill-opacity:1;fill-rule:evenodd;stroke:none"
             id="path43911" />
        </g>
        <g
           id="g43913"
           transform="translate(362.668,398.8086)">
          <path
             d="M 0,0 C 4.956,0 9.001,4.043 9.001,9 9.001,13.959 4.956,18.002 0,18.002 -4.958,18.002 -9.003,13.959 -9.003,9 -9.003,4.043 -4.958,0 0,0"
             style="fill:#336699;fill-opacity:1;fill-rule:evenodd;stroke:none"
             id="path43915" />
        </g>
        <g
           id="g43917"
           transform="translate(360.3486,405.8037)">
          <path
             d="M 0,0 C 2.576,0 4.68,2.103 4.68,4.68 4.68,7.259 2.576,9.36 0,9.36 -2.579,9.36 -4.683,7.259 -4.683,4.68 -4.683,2.103 -2.579,0 0,0"
             style="fill:#4376a8;fill-opacity:1;fill-rule:evenodd;stroke:none"
             id="path43919" />
        </g>
        <g
           id="g43921"
           transform="translate(344.6641,416.0093)">
          <path
             d="m 0,0 c 4.958,0 9.001,4.044 9.001,9.003 0,4.956 -4.043,8.999 -9.001,8.999 -4.956,0 -9,-4.043 -9,-8.999 C -9,4.044 -4.956,0 0,0"
             style="fill:#336699;fill-opacity:1;fill-rule:evenodd;stroke:none"
             id="path43923" />
        </g>
        <g
           id="g43925"
           transform="translate(342.3447,423.0044)">
          <path
             d="M 0,0 C 2.579,0 4.682,2.103 4.682,4.682 4.682,7.26 2.579,9.364 0,9.364 -2.577,9.364 -4.68,7.26 -4.68,4.682 -4.68,2.103 -2.577,0 0,0"
             style="fill:#4376a8;fill-opacity:1;fill-rule:evenodd;stroke:none"
             id="path43927" />
        </g>
        <g
           id="g43929"
           transform="translate(336.9434,429.2915)">
          <path
             d="m 0,0 c 4.958,0 9.003,4.044 9.003,9.001 0,4.958 -4.045,9.002 -9.003,9.002 -4.956,0 -9.001,-4.044 -9.001,-9.002 C -9.001,4.044 -4.956,0 0,0"
             style="fill:#ffcc00;fill-opacity:1;fill-rule:evenodd;stroke:none"
             id="path43931" />
        </g>
        <g
           id="g43933"
           transform="translate(334.624,436.2881)">
          <path
             d="M 0,0 C 2.579,0 4.682,2.102 4.682,4.68 4.682,7.259 2.579,9.36 0,9.36 -2.577,9.36 -4.681,7.259 -4.681,4.68 -4.681,2.102 -2.577,0 0,0"
             style="fill:#ffdb4a;fill-opacity:1;fill-rule:evenodd;stroke:none"
             id="path43935" />
        </g>
        <g
           id="g43937"
           transform="translate(325.6943,431.4629)">
          <path
             d="m 0,0 c 4.958,0 9.003,4.045 9.003,9.001 0,4.958 -4.045,9.002 -9.003,9.002 -4.958,0 -9,-4.044 -9,-9.002 C -9,4.045 -4.958,0 0,0"
             style="fill:#336699;fill-opacity:1;fill-rule:evenodd;stroke:none"
             id="path43939" />
        </g>
        <g
           id="g43941"
           transform="translate(323.375,438.458)">
          <path
             d="m 0,0 c 2.579,0 4.682,2.103 4.682,4.682 0,2.577 -2.103,4.68 -4.682,4.68 -2.579,0 -4.682,-2.103 -4.682,-4.68 C -4.682,2.103 -2.579,0 0,0"
             style="fill:#4376a8;fill-opacity:1;fill-rule:evenodd;stroke:none"
             id="path43943" />
        </g>
        <g
           id="g43945"
           transform="translate(350.5137,430.5869)">
          <path
             d="m 0,0 c 4.958,0 9.003,4.044 9.003,9.001 0,4.958 -4.045,9.002 -9.003,9.002 -4.958,0 -9.001,-4.044 -9.001,-9.002 C -9.001,4.044 -4.958,0 0,0"
             style="fill:#ff6666;fill-opacity:1;fill-rule:evenodd;stroke:none"
             id="path43947" />
        </g>
        <g
           id="g43949"
           transform="translate(348.1943,437.5835)">
          <path
             d="M 0,0 C 2.579,0 4.682,2.102 4.682,4.68 4.682,7.259 2.579,9.362 0,9.362 -2.579,9.362 -4.681,7.259 -4.681,4.68 -4.681,2.102 -2.579,0 0,0"
             style="fill:#ff7a7a;fill-opacity:1;fill-rule:evenodd;stroke:none"
             id="path43951" />
        </g>
        <g
           id="g43953"
           transform="translate(358.3477,413.8892)">
          <path
             d="m 0,0 c 4.958,0 9,4.044 9,9.002 0,4.957 -4.042,9.001 -9,9.001 -4.958,0 -9.001,-4.044 -9.001,-9.001 C -9.001,4.044 -4.958,0 0,0"
             style="fill:#7cb54b;fill-opacity:1;fill-rule:evenodd;stroke:none"
             id="path43955" />
        </g>
        <g
           id="g43957"
           transform="translate(356.0273,420.8838)">
          <path
             d="M 0,0 C 2.577,0 4.681,2.104 4.681,4.682 4.681,7.261 2.577,9.364 0,9.364 -2.578,9.364 -4.682,7.261 -4.682,4.682 -4.682,2.104 -2.578,0 0,0"
             style="fill:#9dd46c;fill-opacity:1;fill-rule:evenodd;stroke:none"
             id="path43959" />
        </g>
        <g
           id="g43961"
           transform="translate(359.1465,425.0903)">
          <path
             d="m 0,0 c 4.958,0 9.003,4.044 9.003,9.003 0,4.956 -4.045,9 -9.003,9 -4.956,0 -9.001,-4.044 -9.001,-9 C -9.001,4.044 -4.956,0 0,0"
             style="fill:#ffcc00;fill-opacity:1;fill-rule:evenodd;stroke:none"
             id="path43963" />
        </g>
        <g
           id="g43965"
           transform="translate(356.8271,432.0869)">
          <path
             d="m 0,0 c 2.578,0 4.682,2.102 4.682,4.682 0,2.577 -2.104,4.68 -4.682,4.68 -2.577,0 -4.681,-2.103 -4.681,-4.68 C -4.681,2.102 -2.577,0 0,0"
             style="fill:#ffdb4a;fill-opacity:1;fill-rule:evenodd;stroke:none"
             id="path43967" />
        </g>
        <g
           id="g43969"
           transform="translate(322.1016,399.2109)">
          <path
             d="m 0,0 c 4.958,0 9.003,4.043 9.003,9.001 0,4.958 -4.045,9.001 -9.003,9.001 -4.956,0 -9,-4.043 -9,-9.001 C -9,4.043 -4.956,0 0,0"
             style="fill:#336699;fill-opacity:1;fill-rule:evenodd;stroke:none"
             id="path43971" />
        </g>
        <g
           id="g43973"
           transform="translate(319.7822,406.2061)">
          <path
             d="M 0,0 C 2.579,0 4.682,2.103 4.682,4.682 4.682,7.26 2.579,9.362 0,9.362 -2.577,9.362 -4.68,7.26 -4.68,4.682 -4.68,2.103 -2.577,0 0,0"
             style="fill:#4376a8;fill-opacity:1;fill-rule:evenodd;stroke:none"
             id="path43975" />
        </g>
        <g
           id="g43977"
           transform="translate(321.9365,409.5039)">
          <path
             d="m 0,0 c 4.956,0 9.001,4.044 9.001,9.001 0,4.958 -4.045,9.002 -9.001,9.002 -4.958,0 -9.003,-4.044 -9.003,-9.002 C -9.003,4.044 -4.958,0 0,0"
             style="fill:#7cb54b;fill-opacity:1;fill-rule:evenodd;stroke:none"
             id="path43979" />
        </g>
        <g
           id="g43981"
           transform="translate(319.6172,416.4985)">
          <path
             d="m 0,0 c 2.577,0 4.68,2.103 4.68,4.682 0,2.577 -2.103,4.68 -4.68,4.68 -2.579,0 -4.683,-2.103 -4.683,-4.68 C -4.683,2.103 -2.579,0 0,0"
             style="fill:#9dd46c;fill-opacity:1;fill-rule:evenodd;stroke:none"
             id="path43983" />
        </g>
        <g
           id="g43985"
           transform="translate(306.1016,410.2349)">
          <path
             d="m 0,0 c 4.956,0 9.001,4.044 9.001,9.002 0,4.957 -4.045,9.001 -9.001,9.001 -4.958,0 -9.001,-4.044 -9.001,-9.001 C -9.001,4.044 -4.958,0 0,0"
             style="fill:#336699;fill-opacity:1;fill-rule:evenodd;stroke:none"
             id="path43987" />
        </g>
        <g
           id="g43989"
           transform="translate(303.7813,417.2314)">
          <path
             d="m 0,0 c 2.579,0 4.681,2.102 4.681,4.682 0,2.577 -2.102,4.68 -4.681,4.68 -2.578,0 -4.682,-2.103 -4.682,-4.68 C -4.682,2.102 -2.578,0 0,0"
             style="fill:#4376a8;fill-opacity:1;fill-rule:evenodd;stroke:none"
             id="path43991" />
        </g>
        <g
           id="g43993"
           transform="translate(311.1006,398.3726)">
          <path
             d="m 0,0 c 4.958,0 9.002,4.044 9.002,9.002 0,4.957 -4.044,8.999 -9.002,8.999 -4.957,0 -9,-4.042 -9,-8.999 C -9,4.044 -4.957,0 0,0"
             style="fill:#ff6666;fill-opacity:1;fill-rule:evenodd;stroke:none"
             id="path43995" />
        </g>
        <g
           id="g43997"
           transform="translate(308.7803,405.3672)">
          <path
             d="M 0,0 C 2.579,0 4.683,2.104 4.683,4.682 4.683,7.261 2.579,9.364 0,9.364 -2.577,9.364 -4.68,7.261 -4.68,4.682 -4.68,2.104 -2.577,0 0,0"
             style="fill:#ff7a7a;fill-opacity:1;fill-rule:evenodd;stroke:none"
             id="path43999" />
        </g>
        <g
           id="g44001"
           transform="translate(313.7813,422.418)">
          <path
             d="m 0,0 c 4.958,0 9.001,4.043 9.001,8.999 0,4.958 -4.043,9.002 -9.001,9.002 -4.958,0 -9.001,-4.044 -9.001,-9.002 C -9.001,4.043 -4.958,0 0,0"
             style="fill:#ffcc00;fill-opacity:1;fill-rule:evenodd;stroke:none"
             id="path44003" />
        </g>
        <g
           id="g44005"
           transform="translate(311.4619,429.4126)">
          <path
             d="M 0,0 C 2.576,0 4.68,2.104 4.68,4.68 4.68,7.259 2.576,9.36 0,9.36 -2.579,9.36 -4.681,7.259 -4.681,4.68 -4.681,2.104 -2.579,0 0,0"
             style="fill:#ffdb4a;fill-opacity:1;fill-rule:evenodd;stroke:none"
             id="path44007" />
        </g>
        <g
           id="g44009"
           transform="translate(298.501,422.0381)">
          <path
             d="m 0,0 c 4.957,0 9,4.043 9,9.001 0,4.956 -4.043,9.001 -9,9.001 -4.959,0 -9.002,-4.045 -9.002,-9.001 C -9.002,4.043 -4.959,0 0,0"
             style="fill:#ff6666;fill-opacity:1;fill-rule:evenodd;stroke:none"
             id="path44011" />
        </g>
        <g
           id="g44013"
           transform="translate(296.1797,429.0327)">
          <path
             d="m 0,0 c 2.579,0 4.683,2.103 4.683,4.682 0,2.577 -2.104,4.68 -4.683,4.68 -2.577,0 -4.68,-2.103 -4.68,-4.68 C -4.68,2.103 -2.577,0 0,0"
             style="fill:#ff7a7a;fill-opacity:1;fill-rule:evenodd;stroke:none"
             id="path44015" />
        </g>
        <g
           id="g44017"
           transform="translate(277.1797,429.1108)">
          <path
             d="m 0,0 c 4.96,0 9.002,4.045 9.002,9.001 0,4.958 -4.042,9.002 -9.002,9.002 -4.957,0 -8.999,-4.044 -8.999,-9.002 C -8.999,4.045 -4.957,0 0,0"
             style="fill:#336699;fill-opacity:1;fill-rule:evenodd;stroke:none"
             id="path44019" />
        </g>
        <g
           id="g44021"
           transform="translate(274.8618,436.1074)">
          <path
             d="M 0,0 C 2.577,0 4.68,2.104 4.68,4.68 4.68,7.259 2.577,9.36 0,9.36 -2.579,9.36 -4.682,7.259 -4.682,4.68 -4.682,2.104 -2.579,0 0,0"
             style="fill:#4376a8;fill-opacity:1;fill-rule:evenodd;stroke:none"
             id="path44023" />
        </g>
        <g
           id="g44025"
           transform="translate(293.5039,432.0186)">
          <path
             d="m 0,0 c 4.956,0 9.001,4.043 9.001,9.001 0,4.958 -4.045,9.002 -9.001,9.002 -4.958,0 -9.002,-4.044 -9.002,-9.002 C -9.002,4.043 -4.958,0 0,0"
             style="fill:#ffcc00;fill-opacity:1;fill-rule:evenodd;stroke:none"
             id="path44027" />
        </g>
        <g
           id="g44029"
           transform="translate(291.1826,439.0137)">
          <path
             d="m 0,0 c 2.579,0 4.682,2.103 4.682,4.682 0,2.577 -2.103,4.68 -4.682,4.68 -2.577,0 -4.68,-2.103 -4.68,-4.68 C -4.68,2.103 -2.577,0 0,0"
             style="fill:#ffdb4a;fill-opacity:1;fill-rule:evenodd;stroke:none"
             id="path44031" />
        </g>
        <g
           id="g44033"
           transform="translate(284.8984,400.0361)">
          <path
             d="m 0,0 c 4.958,0 9.001,4.043 9.001,8.999 0,4.958 -4.043,9.002 -9.001,9.002 -4.958,0 -9.001,-4.044 -9.001,-9.002 C -9.001,4.043 -4.958,0 0,0"
             style="fill:#ff6666;fill-opacity:1;fill-rule:evenodd;stroke:none"
             id="path44035" />
        </g>
        <g
           id="g44037"
           transform="translate(282.5791,407.0308)">
          <path
             d="M 0,0 C 2.577,0 4.68,2.103 4.68,4.68 4.68,7.259 2.577,9.36 0,9.36 -2.579,9.36 -4.682,7.259 -4.682,4.68 -4.682,2.103 -2.579,0 0,0"
             style="fill:#ff7a7a;fill-opacity:1;fill-rule:evenodd;stroke:none"
             id="path44039" />
        </g>
        <g
           id="g44041"
           transform="translate(300.6221,400.0801)">
          <path
             d="m 0,0 c 4.956,0 9,4.043 9,9.001 0,4.958 -4.044,9.001 -9,9.001 -4.96,0 -9.003,-4.043 -9.003,-9.001 C -9.003,4.043 -4.96,0 0,0"
             style="fill:#7cb54b;fill-opacity:1;fill-rule:evenodd;stroke:none"
             id="path44043" />
        </g>
        <g
           id="g44045"
           transform="translate(298.2998,407.0752)">
          <path
             d="M 0,0 C 2.579,0 4.683,2.103 4.683,4.68 4.683,7.261 2.579,9.362 0,9.362 -2.576,9.362 -4.68,7.261 -4.68,4.68 -4.68,2.103 -2.576,0 0,0"
             style="fill:#9dd46c;fill-opacity:1;fill-rule:evenodd;stroke:none"
             id="path44047" />
        </g>
        <g
           id="g44049"
           transform="translate(277.2168,400.0156)">
          <path
             d="m 0,0 c 4.96,0 9.003,4.044 9.003,9.003 0,4.956 -4.043,9 -9.003,9 -4.956,0 -9.001,-4.044 -9.001,-9 C -9.001,4.044 -4.956,0 0,0"
             style="fill:#ffcc00;fill-opacity:1;fill-rule:evenodd;stroke:none"
             id="path44051" />
        </g>
        <g
           id="g44053"
           transform="translate(274.8989,407.0103)">
          <path
             d="M 0,0 C 2.578,0 4.68,2.103 4.68,4.682 4.68,7.261 2.578,9.364 0,9.364 -2.58,9.364 -4.682,7.261 -4.682,4.682 -4.682,2.103 -2.58,0 0,0"
             style="fill:#ffdb4a;fill-opacity:1;fill-rule:evenodd;stroke:none"
             id="path44055" />
        </g>
        <g
           id="g44057"
           transform="translate(290.8799,410.7905)">
          <path
             d="m 0,0 c 4.959,0 9.002,4.043 9.002,9.003 0,4.956 -4.043,9 -9.003,9 C -4.957,18.003 -9,13.959 -9,9.003 -9,4.043 -4.957,0 0,0"
             style="fill:#ffcc00;fill-opacity:1;fill-rule:evenodd;stroke:none"
             id="path44059" />
        </g>
        <g
           id="g44061"
           transform="translate(288.5615,417.7856)">
          <path
             d="M 0,0 C 2.577,0 4.68,2.103 4.68,4.682 4.68,7.26 2.577,9.364 0,9.364 -2.579,9.364 -4.682,7.26 -4.682,4.682 -4.682,2.103 -2.579,0 0,0"
             style="fill:#ffdb4a;fill-opacity:1;fill-rule:evenodd;stroke:none"
             id="path44063" />
        </g>
        <g
           id="g44065"
           transform="translate(282.6406,419.0942)">
          <path
             d="m 0,0 c 4.958,0 9.001,4.043 9.001,9.001 0,4.958 -4.043,9.001 -9.001,9.001 -4.958,0 -9.001,-4.043 -9.001,-9.001 C -9.001,4.043 -4.958,0 0,0"
             style="fill:#336699;fill-opacity:1;fill-rule:evenodd;stroke:none"
             id="path44067" />
        </g>
        <g
           id="g44069"
           transform="translate(280.3203,426.0894)">
          <path
             d="M 0,0 C 2.579,0 4.683,2.103 4.683,4.68 4.683,7.26 2.579,9.362 0,9.362 -2.578,9.362 -4.682,7.26 -4.682,4.68 -4.682,2.103 -2.578,0 0,0"
             style="fill:#4376a8;fill-opacity:1;fill-rule:evenodd;stroke:none"
             id="path44071" />
        </g>
        <g
           id="g44073"
           transform="translate(274.1392,407.5234)">
          <path
             d="m 0,0 c 4.957,0 9,4.044 9,9.001 0,4.958 -4.043,9.002 -9,9.002 -4.958,0 -9.003,-4.044 -9.003,-9.002 C -9.003,4.044 -4.958,0 0,0"
             style="fill:#7cb54b;fill-opacity:1;fill-rule:evenodd;stroke:none"
             id="path44075" />
        </g>
        <g
           id="g44077"
           transform="translate(271.8174,414.5181)">
          <path
             d="m 0,0 c 2.579,0 4.682,2.103 4.682,4.682 0,2.577 -2.103,4.68 -4.682,4.68 -2.577,0 -4.68,-2.103 -4.68,-4.68 C -4.68,2.103 -2.577,0 0,0"
             style="fill:#9dd46c;fill-opacity:1;fill-rule:evenodd;stroke:none"
             id="path44079" />
        </g>
        <g
           id="g44081"
           transform="translate(368.3896,420.3184)">
          <path
             d="M 0,0 C 4.958,0 9.001,4.042 9.001,9 9.001,13.958 4.958,18.001 0,18.001 -4.958,18.001 -9.001,13.958 -9.001,9 -9.001,4.042 -4.958,0 0,0"
             style="fill:#ff6666;fill-opacity:1;fill-rule:evenodd;stroke:none"
             id="path44083" />
        </g>
        <g
           id="g44085"
           transform="translate(366.0693,427.313)">
          <path
             d="M 0,0 C 2.577,0 4.681,2.103 4.681,4.68 4.681,7.259 2.577,9.362 0,9.362 -2.578,9.362 -4.682,7.259 -4.682,4.68 -4.682,2.103 -2.578,0 0,0"
             style="fill:#ff7a7a;fill-opacity:1;fill-rule:evenodd;stroke:none"
             id="path44087" />
        </g>
        <g
           id="g44089"
           transform="translate(380.2686,430.6128)">
          <path
             d="m 0,0 c 4.959,0 9.001,4.043 9.001,9.001 0,4.957 -4.042,9 -9.001,9 -4.958,0 -9,-4.043 -9,-9 C -9,4.043 -4.958,0 0,0"
             style="fill:#ff6666;fill-opacity:1;fill-rule:evenodd;stroke:none"
             id="path44091" />
        </g>
        <g
           id="g44093"
           transform="translate(377.9492,437.6074)">
          <path
             d="M 0,0 C 2.579,0 4.681,2.103 4.681,4.68 4.681,7.259 2.579,9.362 0,9.362 -2.578,9.362 -4.682,7.259 -4.682,4.68 -4.682,2.103 -2.578,0 0,0"
             style="fill:#ff7a7a;fill-opacity:1;fill-rule:evenodd;stroke:none"
             id="path44095" />
        </g>
        <g
           id="g44097"
           transform="translate(383.0693,421.2114)">
          <path
             d="m 0,0 c 4.956,0 9.001,4.043 9.001,9.001 0,4.957 -4.045,9 -9.001,9 -4.958,0 -9.001,-4.043 -9.001,-9 C -9.001,4.043 -4.958,0 0,0"
             style="fill:#336699;fill-opacity:1;fill-rule:evenodd;stroke:none"
             id="path44099" />
        </g>
        <g
           id="g44101"
           transform="translate(380.75,428.2061)">
          <path
             d="M 0,0 C 2.578,0 4.682,2.103 4.682,4.68 4.682,7.259 2.578,9.362 0,9.362 -2.579,9.362 -4.683,7.259 -4.683,4.68 -4.683,2.103 -2.579,0 0,0"
             style="fill:#4376a8;fill-opacity:1;fill-rule:evenodd;stroke:none"
             id="path44103" />
        </g>
        <g
           id="g44105"
           transform="translate(370.5488,409.8892)">
          <path
             d="M 0,0 C 4.956,0 9.001,4.044 9.001,9 9.001,13.958 4.956,18.003 0,18.003 -4.958,18.003 -9.002,13.958 -9.002,9 -9.002,4.044 -4.958,0 0,0"
             style="fill:#ffcc00;fill-opacity:1;fill-rule:evenodd;stroke:none"
             id="path44107" />
        </g>
        <g
           id="g44109"
           transform="translate(368.2295,416.8857)">
          <path
             d="M 0,0 C 2.577,0 4.68,2.101 4.68,4.68 4.68,7.259 2.577,9.36 0,9.36 -2.579,9.36 -4.682,7.259 -4.682,4.68 -4.682,2.101 -2.579,0 0,0"
             style="fill:#ffdb4a;fill-opacity:1;fill-rule:evenodd;stroke:none"
             id="path44111" />
        </g>
        <g
           id="g44113"
           transform="translate(378.1484,399.8877)">
          <path
             d="m 0,0 c 4.958,0 9.001,4.044 9.001,9.001 0,4.958 -4.043,9.002 -9.001,9.002 -4.958,0 -9.001,-4.044 -9.001,-9.002 C -9.001,4.044 -4.958,0 0,0"
             style="fill:#7cb54b;fill-opacity:1;fill-rule:evenodd;stroke:none"
             id="path44115" />
        </g>
        <g
           id="g44117"
           transform="translate(375.8291,406.8843)">
          <path
             d="M 0,0 C 2.579,0 4.682,2.102 4.682,4.68 4.682,7.259 2.579,9.362 0,9.362 -2.579,9.362 -4.682,7.259 -4.682,4.68 -4.682,2.102 -2.579,0 0,0"
             style="fill:#9dd46c;fill-opacity:1;fill-rule:evenodd;stroke:none"
             id="path44119" />
        </g>
        <g
           id="g44121"
           transform="translate(394.5498,425.0903)">
          <path
             d="m 0,0 c 4.958,0 9.003,4.044 9.003,9.003 0,4.956 -4.045,9 -9.003,9 -4.956,0 -9.001,-4.044 -9.001,-9 C -9.001,4.044 -4.956,0 0,0"
             style="fill:#7cb54b;fill-opacity:1;fill-rule:evenodd;stroke:none"
             id="path44123" />
        </g>
        <g
           id="g44125"
           transform="translate(392.2324,432.0869)">
          <path
             d="m 0,0 c 2.577,0 4.68,2.102 4.68,4.682 0,2.577 -2.103,4.68 -4.68,4.68 -2.579,0 -4.683,-2.103 -4.683,-4.68 C -4.683,2.102 -2.579,0 0,0"
             style="fill:#9dd46c;fill-opacity:1;fill-rule:evenodd;stroke:none"
             id="path44127" />
        </g>
        <g
           id="g44129"
           transform="translate(384.4688,401.6074)">
          <path
             d="m 0,0 c 4.958,0 9.002,4.043 9.002,9.003 0,4.956 -4.044,8.998 -9.002,8.998 -4.956,0 -9.001,-4.042 -9.001,-8.998 C -9.001,4.043 -4.956,0 0,0"
             style="fill:#336699;fill-opacity:1;fill-rule:evenodd;stroke:none"
             id="path44131" />
        </g>
        <g
           id="g44133"
           transform="translate(382.1494,408.604)">
          <path
             d="m 0,0 c 2.578,0 4.682,2.102 4.682,4.682 0,2.577 -2.104,4.68 -4.682,4.68 -2.577,0 -4.681,-2.103 -4.681,-4.68 C -4.681,2.102 -2.577,0 0,0"
             style="fill:#4376a8;fill-opacity:1;fill-rule:evenodd;stroke:none"
             id="path44135" />
        </g>
        <g
           id="g44137"
           transform="translate(391.3506,413.2891)">
          <path
             d="m 0,0 c 4.958,0 9.001,4.043 9.001,9.003 0,4.956 -4.043,8.999 -9.001,8.999 -4.958,0 -9,-4.043 -9,-8.999 C -9,4.043 -4.958,0 0,0"
             style="fill:#ffcc00;fill-opacity:1;fill-rule:evenodd;stroke:none"
             id="path44139" />
        </g>
        <g
           id="g44141"
           transform="translate(389.0313,420.2842)">
          <path
             d="M 0,0 C 2.579,0 4.681,2.103 4.681,4.682 4.681,7.261 2.579,9.364 0,9.364 -2.579,9.364 -4.682,7.261 -4.682,4.682 -4.682,2.103 -2.579,0 0,0"
             style="fill:#ffdb4a;fill-opacity:1;fill-rule:evenodd;stroke:none"
             id="path44143" />
        </g>
        <g
           id="g44145"
           transform="translate(381.917,412.7266)">
          <path
             d="m 0,0 c 4.958,0 9.001,4.043 9.001,9.001 0,4.958 -4.043,9.001 -9.001,9.001 -4.958,0 -9.001,-4.043 -9.001,-9.001 C -9.001,4.043 -4.958,0 0,0"
             style="fill:#ff6666;fill-opacity:1;fill-rule:evenodd;stroke:none"
             id="path44147" />
        </g>
        <g
           id="g44149"
           transform="translate(379.5977,419.7217)">
          <path
             d="M 0,0 C 2.578,0 4.68,2.103 4.68,4.68 4.68,7.261 2.578,9.362 0,9.362 -2.579,9.362 -4.682,7.261 -4.682,4.68 -4.682,2.103 -2.579,0 0,0"
             style="fill:#ff7a7a;fill-opacity:1;fill-rule:evenodd;stroke:none"
             id="path44151" />
        </g>
        <g
           id="g44153"
           transform="translate(392.9482,403.5845)">
          <path
             d="m 0,0 c -17.085,-36.661 -50.76,-61.607 -89.517,-61.607 -38.757,0 -72.434,24.946 -89.518,61.607 z"
             style="fill:#cc3300;fill-opacity:1;fill-rule:evenodd;stroke:none"
             id="path44155" />
        </g>
      </g>
    </g>
  </g>
</svg>
