<?xml version="1.0" encoding="UTF-8" standalone="no"?>
<!-- Created with Inkscape (http://www.inkscape.org/) -->

<svg
   version="1.1"
   id="svg13541"
   width="800"
   height="800"
   viewBox="0 0 800 800"
   sodipodi:docname="black-curved-lines-publicdomainvectors.org.svg"
   inkscape:version="1.2 (dc2aedaf03, 2022-05-15)"
   xmlns:inkscape="http://www.inkscape.org/namespaces/inkscape"
   xmlns:sodipodi="http://sodipodi.sourceforge.net/DTD/sodipodi-0.dtd"
   xmlns="http://www.w3.org/2000/svg"
   xmlns:svg="http://www.w3.org/2000/svg">
  <defs
     id="defs13545">
    <clipPath
       clipPathUnits="userSpaceOnUse"
       id="clipPath13557">
      <path
         d="M 0,600 H 600 V 0 H 0 Z"
         id="path13555" />
    </clipPath>
  </defs>
  <sodipodi:namedview
     id="namedview13543"
     pagecolor="#ffffff"
     bordercolor="#000000"
     borderopacity="0.25"
     inkscape:showpageshadow="2"
     inkscape:pageopacity="0.0"
     inkscape:pagecheckerboard="0"
     inkscape:deskcolor="#d1d1d1"
     showgrid="false"
     inkscape:zoom="1.04625"
     inkscape:cx="400"
     inkscape:cy="400.4779"
     inkscape:window-width="1920"
     inkscape:window-height="1017"
     inkscape:window-x="-8"
     inkscape:window-y="-8"
     inkscape:window-maximized="1"
     inkscape:current-layer="g13549">
    <inkscape:page
       x="0"
       y="0"
       id="page13547"
       width="800"
       height="800" />
  </sodipodi:namedview>
  <g
     id="g13549"
     inkscape:groupmode="layer"
     inkscape:label="Page 1"
     transform="matrix(1.3333333,0,0,-1.3333333,0,800)">
    <g
       id="g13551">
      <g
         id="g13553"
         clip-path="url(#clipPath13557)">
        <g
           id="g13559"
           transform="translate(494.9648,379.0332)">
          <path
             d="m 0,0 c -29.803,62.017 -93.309,106.423 -162.014,111.991 -68.628,7.033 -139.182,-24.606 -179.885,-80.232 -41.576,-54.918 -51.188,-131.796 -24.839,-195.374 25.354,-64.028 86.041,-112.302 154.055,-122.707 l -1.066,-6.64 c -70.322,10.766 -133.005,60.637 -159.219,126.814 -27.24,65.721 -17.298,145.142 25.672,201.921 42.033,57.474 115.01,90.188 185.898,82.915 C -90.375,112.923 -24.752,67.044 6.045,2.951 Z"
             style="fill:#231f20;fill-opacity:1;fill-rule:nonzero;stroke:none"
             id="path13561" />
        </g>
        <g
           id="g13563"
           transform="translate(397.7637,441.3193)">
          <path
             d="m 0,0 c -51.07,29.082 -117.708,28.652 -168.444,-0.936 -51.498,-28.82 -85.727,-85.511 -86.724,-144.469 -2.25,-59.006 28.522,-117.49 78.402,-149.184 48.998,-32.477 115.42,-36.494 168.139,-10.52 l 4.762,-9.836 c -56.117,-27.645 -126.678,-23.363 -178.849,11.188 -53.015,33.665 -85.776,95.936 -83.379,158.657 1.068,62.708 37.482,123.027 92.23,153.655 54.024,31.481 124.8,31.933 179.177,0.995 z"
             style="fill:#231f20;fill-opacity:1;fill-rule:nonzero;stroke:none"
             id="path13565" />
        </g>
        <g
           id="g13567"
           transform="translate(177.8496,484.7573)">
          <path
             d="m 0,0 c -66.807,-46.112 -106.278,-128.758 -99.941,-209.716 4.704,-81.196 54.864,-157.62 127.285,-194.404 71.908,-38.03 163.09,-34.972 232.3,7.821 69.614,41.695 114.741,121.238 113.891,202.566 h 10.928 c 0.887,-85.06 -46.326,-168.313 -119.135,-211.898 -72.441,-44.778 -167.763,-47.979 -243.024,-8.185 -75.749,38.476 -128.221,118.41 -133.148,203.372 -6.633,84.646 34.681,171.174 104.544,219.373 z"
             style="fill:#231f20;fill-opacity:1;fill-rule:nonzero;stroke:none"
             id="path13569" />
        </g>
        <g
           id="g13571"
           transform="translate(515.3828,368.1343)">
          <path
             d="m 0,0 c -25.924,69.094 -89.699,122.221 -162.52,134.699 -72.482,13.762 -151.042,-13.129 -199.497,-68.895 -49.599,-54.758 -67.025,-135.881 -44.832,-206.281 21.233,-70.69 81.331,-127.904 153.074,-145.411 l -3.837,-15.233 c -77.038,18.818 -141.439,80.128 -164.251,156.028 -23.831,75.524 -5.106,162.569 48.101,221.33 51.936,59.8 136.348,88.702 214.035,73.921 C -81.529,136.731 -13.174,79.79 14.668,5.628 Z"
             style="fill:#231f20;fill-opacity:1;fill-rule:nonzero;stroke:none"
             id="path13573" />
        </g>
        <g
           id="g13575"
           transform="translate(506.2031,321.4121)">
          <path
             d="m 0,0 c -9.83,65.783 -56.371,124.583 -118.158,149.337 -61.373,25.662 -135.772,16.623 -188.967,-23.411 -53.96,-39.176 -84.713,-107.273 -78.144,-173.667 5.159,-66.421 47.867,-127.997 107.764,-156.986 l -1.487,-3.018 c -60.932,29.49 -104.372,92.127 -109.627,159.708 -6.685,67.524 24.61,136.83 79.495,176.667 54.128,40.729 129.798,49.93 192.243,23.818 C -54.022,127.261 -6.684,67.459 3.324,0.522 Z"
             style="fill:#231f20;fill-opacity:1;fill-rule:nonzero;stroke:none"
             id="path13577" />
        </g>
        <g
           id="g13579"
           transform="translate(473.2148,291.0244)">
          <path
             d="m 0,0 c 0.572,54.617 -29.621,107.634 -76.383,135.805 -46.09,28.607 -107.669,30.635 -155.587,5.222 -48.619,-24.692 -82.24,-75.988 -85.34,-130.25 -4.226,-54.584 22.065,-109.46 67.018,-140.643 l -1.94,-2.748 c -45.892,31.824 -72.75,87.897 -68.433,143.615 3.169,55.421 37.502,107.797 87.144,133.01 48.95,25.956 111.802,23.884 158.888,-5.334 C -26.889,109.924 3.947,55.767 3.363,0 Z"
             style="fill:#231f20;fill-opacity:1;fill-rule:nonzero;stroke:none"
             id="path13581" />
        </g>
        <g
           id="g13583"
           transform="translate(467.1641,501.0034)">
          <path
             d="m 0,0 c -71.697,53.122 -170.927,64.641 -252.955,29.707 -82.393,-33.821 -144.05,-112.404 -156.678,-200.814 -14.17,-87.698 21.478,-181.703 90.18,-238.063 67.844,-57.873 166.252,-75.986 250.33,-46.679 l 1.084,-3.183 c -85.17,-29.688 -184.845,-11.337 -253.571,47.285 -69.587,57.078 -105.702,152.323 -91.347,241.14 12.796,89.565 75.244,169.155 158.706,203.416 C -171.156,68.198 -70.654,56.526 1.98,2.717 Z"
             style="fill:#231f20;fill-opacity:1;fill-rule:nonzero;stroke:none"
             id="path13585" />
        </g>
      </g>
    </g>
  </g>
</svg>
